# xmcd
#
# Track frame offsets:
#	150
#	15094
#	26900
#	40353
#	56109
#	72794
#	86188
#	103370
#	120366
#	136393
#	150075
#	163274
#	177555
#	194802
#	207717
#	210461
#	227904
#	235531
#	249301
#	269764
#	307918
#	311785
#	312319
#	312844
#
# Disc length: 4177 seconds
#
# Revision: 1
# Processed by: cddbd v1.5.2PL0 Copyright (c) Steve Scherf et al.
# Submitted via: audiograbber 1.83.01
#
DISCID=5c104f18
DTITLE=Michael Heck - Easy Rider USA
DYEAR=2009
DGENRE=Country
TTITLE0=Easy Rider USA
TTITLE1=Only The Lonely
TTITLE2=The Highlands
TTITLE3=Blue Bayou
TTITLE4=Indian Summer
TTITLE5=Baby Rive It Up
TTITLE6=Pretty Dream Girl
TTITLE7=Where The Eagles Fly
TTITLE8=Ich steh auf Country Music
TTITLE9=Blaue Augen, blondes Haar
TTITLE10=Truckertreff in Kaunitz
TTITLE11=1000 Meilen weit
TTITLE12=Adler müssen fliegen
TTITLE13=Sierra Madre del sur
TTITLE14=Einleitung
TTITLE15=Hier kommt der Easy Rider USA
TTITLE16=Damals in Amerika
TTITLE17=Der Tag, an dem ich Scotty traf
TTITLE18=Nashville Memories
TTITLE19=Dreams Come True In Blue Bayou
TTITLE20=Zwischenlandung in Detroit City
TTITLE21=Klingelton - Easy Rider USA (dt.)
TTITLE22=Klingelton - Easy Rider USA (engl.)
TTITLE23=Klingelton - Hey Baby
EXTD=
EXTT0=
EXTT1=
EXTT2=
EXTT3=
EXTT4=
EXTT5=
EXTT6=
EXTT7=
EXTT8=
EXTT9=
EXTT10=
EXTT11=
EXTT12=
EXTT13=
EXTT14=
EXTT15=
EXTT16=
EXTT17=
EXTT18=
EXTT19=
EXTT20=
EXTT21=
EXTT22=
EXTT23=
PLAYORDER=
